<?xml version="1.0" encoding="UTF-8"?>
<svg version="1.1" xmlns="http://www.w3.org/2000/svg" width="64" height="64">
<path d="M0 0 C3.43827463 -0.16372736 5.85940235 -0.05061515 9.125 1.125 C11.88920156 2.30669286 11.88920156 2.30669286 14 1.125 C14.66 0.75375 15.32 0.3825 16 0 C19.25 -0.125 19.25 -0.125 22 0 C21.50769231 7.38461538 21.50769231 7.38461538 18.9375 10.5 C18.298125 10.995 17.65875 11.49 17 12 C17.66 12.66 18.32 13.32 19 14 C20.7982153 24.25929152 17.66377836 38.67244328 13 48 C11.68 48 10.36 48 9 48 C1.79406051 25.36775315 1.79406051 25.36775315 3 14 C3.66 13.34 4.32 12.68 5 12 C4.360625 11.505 3.72125 11.01 3.0625 10.5 C0.18484731 7.01193613 0.29769264 4.46538959 0 0 Z " fill="#FBA12A" transform="translate(21,8)"/>
<path d="M0 0 C3.43827463 -0.16372736 5.85940235 -0.05061515 9.125 1.125 C11.88920156 2.30669286 11.88920156 2.30669286 14 1.125 C14.66 0.75375 15.32 0.3825 16 0 C19.25 -0.125 19.25 -0.125 22 0 C21.63650546 7.2698908 21.63650546 7.2698908 18.875 10.4375 C15.39521586 12.32868703 12.96519639 12.93043515 9 13 C5.36061343 11.74021234 3.51169762 10.64815032 1.125 7.625 C-0.06785191 4.84167887 -0.25657385 2.99336155 0 0 Z " fill="#38B548" transform="translate(21,8)"/>
</svg>
